<?xml version="1.0" standalone="no"?>
<!DOCTYPE svg PUBLIC "-//W3C//DTD SVG 20010904//EN"
 "http://www.w3.org/TR/2001/REC-SVG-20010904/DTD/svg10.dtd">
<svg version="1.0" xmlns="http://www.w3.org/2000/svg"
 width="768.000000pt" height="768.000000pt" viewBox="0 0 768.000000 768.000000"
 preserveAspectRatio="xMidYMid meet">

<g transform="translate(0.000000,768.000000) scale(0.100000,-0.100000)"
fill="#000000" stroke="none">
<path d="M4020 5934 c-100 -26 -133 -45 -113 -65 8 -8 38 -4 115 16 81 22 125
28 203 28 164 0 282 -49 545 -225 237 -158 427 -326 612 -541 117 -137 158
-170 158 -130 0 23 -176 232 -289 342 -205 200 -508 424 -703 519 -179 88
-342 105 -528 56z"/>
<path d="M3635 5881 c-305 -55 -544 -163 -724 -329 l-80 -72 -41 80 c-24 44
-60 95 -82 116 -38 34 -44 36 -85 30 -62 -8 -129 -47 -210 -121 l-68 -62 -51
10 c-135 27 -265 -79 -379 -308 -121 -244 -176 -538 -155 -831 18 -241 76
-613 97 -621 33 -13 33 16 4 198 -70 433 -75 631 -25 876 52 257 186 519 311
607 44 30 144 49 156 28 4 -5 -13 -44 -37 -86 -24 -42 -58 -120 -76 -174 -27
-81 -33 -113 -34 -192 -1 -141 29 -188 133 -205 l43 -7 -73 -40 c-40 -23 -94
-62 -119 -87 -81 -81 -86 -164 -24 -364 44 -141 98 -211 173 -223 l37 -6 11
-106 c13 -115 50 -275 110 -464 29 -94 40 -118 55 -118 26 0 23 25 -17 154
-49 159 -81 289 -95 384 -16 108 -8 344 16 487 l19 110 6 -110 c9 -147 46
-262 122 -378 71 -109 190 -208 218 -180 14 14 2 39 -27 51 -113 52 -248 285
-260 450 -2 34 -6 92 -9 128 l-4 66 48 -68 c55 -78 128 -150 188 -184 l40 -24
12 -140 c7 -78 25 -226 40 -329 l26 -188 -47 -49 c-93 -97 -144 -242 -135
-384 7 -100 54 -202 123 -265 55 -52 160 -103 224 -109 46 -4 48 -6 74 -59 15
-31 26 -56 24 -58 -2 -1 -43 -31 -93 -66 -187 -132 -372 -336 -456 -502 -52
-106 -60 -137 -31 -137 12 0 30 28 61 92 90 187 252 366 473 523 l75 53 41
-57 c40 -54 160 -185 193 -209 9 -7 24 -10 33 -6 13 5 16 22 16 96 l0 90 46
-41 c90 -79 212 -121 350 -121 86 0 134 11 134 31 0 15 -91 149 -101 149 -6 0
-89 152 -89 164 0 21 22 -3 63 -67 50 -79 137 -172 205 -219 129 -89 311 -145
441 -135 162 12 252 76 292 207 25 82 23 174 -4 227 l-16 31 77 27 c42 15 104
41 136 57 l59 30 76 -30 c42 -16 119 -45 172 -63 l96 -33 -5 -38 c-4 -33 -2
-38 22 -44 18 -4 38 1 71 20 l45 27 40 -23 c35 -20 40 -27 40 -60 0 -72 27
-89 70 -43 l23 24 16 -28 c14 -26 55 -77 265 -335 24 -30 51 -77 61 -106 17
-52 38 -71 57 -52 7 7 3 29 -12 69 -16 43 -55 101 -153 223 -73 91 -151 184
-173 208 -40 42 -41 43 -24 65 28 35 85 156 108 227 48 147 73 279 87 454 l7
79 27 -49 c25 -46 70 -82 90 -70 5 4 17 49 26 102 44 241 -17 532 -193 926
l-70 157 37 7 c73 12 107 24 153 53 58 37 110 106 106 141 -3 24 -7 25 -81 33
-87 8 -137 30 -254 108 -78 53 -103 60 -103 30 0 -14 27 -38 86 -77 98 -65
184 -103 234 -104 19 0 42 -5 50 -10 12 -7 10 -14 -15 -40 -41 -43 -98 -71
-172 -85 l-62 -12 -43 71 c-42 69 -69 89 -76 55 -2 -10 16 -47 38 -85 57 -92
200 -414 244 -549 70 -215 80 -273 81 -455 0 -223 -6 -231 -76 -96 -77 151
-84 146 -85 -62 0 -111 -6 -198 -17 -259 -20 -103 -65 -264 -97 -339 -29 -66
-100 -175 -111 -168 -5 3 -9 27 -9 54 0 65 -18 146 -36 161 -11 9 -26 -2 -81
-60 -65 -68 -103 -91 -89 -54 27 69 46 464 26 519 -9 23 -4 39 34 113 47 91
102 248 132 374 10 42 21 77 25 77 7 0 95 -267 125 -378 17 -62 36 -84 55 -65
12 12 -59 260 -126 442 -25 69 -45 131 -45 140 0 8 -6 22 -13 30 -7 9 -33 63
-57 121 -71 172 -265 564 -347 701 -123 207 -303 437 -407 520 -54 43 -64 46
-73 23 -4 -11 16 -36 65 -80 234 -213 491 -640 734 -1218 61 -144 60 -156 -2
-375 -52 -179 -101 -293 -173 -402 -114 -171 -188 -242 -399 -381 -56 -37
-185 -82 -367 -129 -305 -78 -584 -89 -738 -29 -43 16 -87 30 -99 30 -18 0
-29 19 -66 118 -186 481 -269 901 -270 1362 0 161 3 214 21 305 36 180 37 195
13 195 -22 0 -36 -49 -68 -238 -21 -119 -15 -499 10 -692 44 -333 148 -713
288 -1045 69 -165 82 -190 144 -271 30 -39 54 -75 54 -79 0 -17 -195 2 -252
24 -77 30 -155 90 -196 151 -21 32 -40 50 -53 50 -19 0 -20 -5 -13 -117 l7
-118 -33 30 c-47 44 -160 187 -160 203 0 8 -12 28 -27 46 -74 88 -168 376
-227 696 -32 173 -83 535 -95 670 -14 154 -14 442 0 543 9 66 9 91 0 100 -32
32 -49 -42 -58 -255 -6 -156 -6 -157 -27 -146 -46 25 -150 137 -199 215 -29
46 -57 83 -64 83 -8 0 -6 19 7 68 51 182 139 374 243 526 73 106 223 266 316
337 147 111 400 209 626 244 137 21 137 21 133 42 -4 24 -35 25 -153 4z m-940
-262 c34 -38 95 -153 95 -180 0 -6 -20 -34 -44 -62 -141 -167 -275 -442 -340
-702 -26 -103 -66 -344 -72 -441 l-7 -92 -30 9 c-64 18 -107 85 -148 228 -26
91 -34 172 -19 215 16 49 85 107 194 163 90 45 136 89 120 114 -4 6 -36 8 -83
3 -126 -10 -161 21 -161 146 0 86 34 203 92 320 43 86 67 119 133 186 82 83
159 133 206 134 19 0 38 -12 64 -41z m-241 -1014 c3 -8 1 -15 -4 -15 -6 0 -10
7 -10 15 0 8 2 15 4 15 2 0 6 -7 10 -15z m426 -1272 c0 -1 -26 -1 -57 0 -52 2
-58 0 -58 -18 0 -17 9 -21 53 -26 29 -4 58 -12 66 -18 7 -6 19 -37 26 -68 10
-49 79 -270 96 -310 10 -23 -44 -14 -111 19 -76 37 -147 107 -177 176 -26 57
-35 177 -19 251 15 71 53 148 98 200 l37 44 23 -124 c12 -68 23 -125 23 -126z
m2486 -225 c-4 -101 -9 -200 -12 -220 l-6 -37 -122 43 c-66 24 -137 50 -156
58 l-34 14 75 55 c87 65 142 120 206 207 26 34 49 62 51 62 3 0 2 -82 -2 -182z
m174 -298 c0 -21 -15 -27 -25 -10 -7 12 2 30 16 30 5 0 9 -9 9 -20z m-847 -45
c40 -85 9 -234 -63 -299 -112 -101 -350 -85 -554 36 -74 44 -189 152 -220 207
l-19 34 24 -6 c13 -4 68 -12 123 -18 148 -17 417 11 586 60 95 27 104 26 123
-14z"/>
<path d="M4370 5415 c0 -9 29 -50 65 -92 75 -88 96 -123 172 -288 60 -130 112
-280 136 -388 l15 -68 -39 -20 c-22 -11 -43 -27 -46 -36 -7 -19 29 -49 70 -58
25 -6 27 -10 27 -59 0 -49 -2 -52 -31 -63 -40 -15 -37 -49 4 -45 25 3 27 0 27
-32 0 -38 -27 -186 -35 -194 -8 -8 -71 135 -90 203 -9 33 -20 69 -25 80 -4 11
-11 28 -14 38 -3 11 -13 17 -23 15 -15 -3 -18 -16 -19 -84 -2 -105 -31 -206
-101 -358 -87 -188 -79 -184 -123 -74 -20 51 -65 153 -100 226 -57 119 -62
135 -50 156 16 31 5 49 -27 43 -22 -4 -31 9 -123 192 -104 207 -269 471 -294
471 -28 0 -28 -21 -1 -61 23 -35 24 -42 12 -52 -9 -8 -17 -39 -21 -84 -11
-124 -65 -417 -132 -718 -43 -189 -68 -322 -71 -383 l-6 -94 24 4 c22 3 24 8
27 73 l3 70 82 59 c77 55 261 150 423 217 80 33 104 53 86 71 -8 8 -28 4 -74
-15 -153 -62 -352 -159 -422 -206 -50 -34 -76 -47 -76 -37 0 8 16 84 36 168
71 309 108 504 151 798 l8 55 59 -95 c53 -85 236 -428 236 -443 0 -3 -17 -11
-37 -17 -21 -7 -75 -26 -120 -42 -101 -37 -109 -58 -37 -90 57 -25 130 -19
201 17 26 14 48 23 49 22 13 -15 100 -203 145 -312 32 -77 64 -144 72 -149 24
-16 44 9 102 123 71 143 104 222 124 303 l17 68 26 -63 c64 -155 114 -203 142
-135 8 18 17 53 21 78 10 62 12 64 48 34 88 -74 193 -71 273 10 58 58 76 127
53 209 -7 27 -15 37 -30 37 -18 0 -19 -5 -13 -69 6 -60 4 -74 -16 -109 -42
-74 -139 -104 -206 -63 -48 29 -84 82 -84 123 0 35 1 35 67 53 78 21 180 60
311 117 68 30 92 46 92 59 0 29 -25 24 -149 -31 -115 -51 -280 -110 -307 -110
-10 0 -14 13 -14 49 0 41 4 51 20 56 56 18 117 101 122 167 3 30 0 33 -22 31
-14 0 -49 -16 -78 -34 -29 -18 -54 -30 -57 -27 -2 2 -16 49 -30 104 -14 54
-46 150 -71 212 -25 63 -44 115 -42 117 7 8 178 -113 268 -190 52 -44 149
-133 216 -197 67 -65 126 -118 133 -118 6 0 11 8 11 18 0 21 -247 267 -365
364 -81 66 -228 166 -278 189 -19 9 -40 37 -67 88 -69 132 -210 276 -210 216z
m530 -822 c-1 -14 -34 -50 -57 -62 -29 -15 -33 -14 -33 7 0 9 17 27 38 38 41
24 52 28 52 17z m-133 -79 c-3 -3 -12 -4 -19 -1 -8 3 -5 6 6 6 11 1 17 -2 13
-5z m-658 -271 c-23 -27 -91 -53 -139 -52 l-45 1 35 15 c27 13 134 48 159 52
2 1 -3 -6 -10 -16z"/>
<path d="M5244 4055 c-9 -22 2 -30 60 -44 32 -8 52 -9 59 -2 16 16 1 38 -31
44 -16 3 -41 9 -56 13 -19 4 -27 2 -32 -11z"/>
<path d="M4159 4004 c-9 -11 -9 -18 -1 -26 15 -15 15 -78 1 -115 -22 -60 -117
-133 -174 -133 -39 0 -100 35 -131 75 -26 35 -64 47 -64 21 0 -27 62 -94 115
-123 118 -64 290 47 312 202 9 72 -28 135 -58 99z"/>
<path d="M5144 3989 c-10 -17 15 -34 80 -53 39 -12 62 -14 68 -8 19 19 1 37
-54 55 -64 20 -84 21 -94 6z"/>
<path d="M1796 3628 c-43 -159 -59 -178 -143 -178 -32 0 -75 5 -96 11 -51 14
-74 5 -88 -38 -17 -52 -6 -124 30 -198 26 -52 41 -70 77 -91 41 -24 52 -26
110 -21 l65 6 -19 -27 c-33 -46 -91 -168 -117 -246 -63 -188 -81 -395 -47
-557 24 -115 81 -244 147 -330 51 -66 117 -119 147 -119 25 0 33 25 48 150 11
92 29 163 30 121 0 -22 66 -123 105 -163 21 -21 43 -34 51 -31 20 8 17 27 -8
49 -39 35 -98 137 -120 207 -11 38 -27 71 -35 74 -30 12 -42 -22 -61 -180 -11
-87 -22 -161 -26 -164 -10 -10 -73 55 -118 120 -86 126 -128 269 -128 438 0
246 80 493 215 664 71 91 82 112 66 128 -10 9 -21 3 -52 -32 -22 -25 -50 -46
-62 -48 -12 -1 -52 -5 -90 -9 l-67 -6 -34 35 c-19 20 -41 57 -50 83 -17 49
-22 130 -8 137 4 2 39 -1 79 -6 128 -19 188 17 223 130 26 83 26 103 0 103
-11 0 -22 -6 -24 -12z"/>
<path d="M4944 3531 c-66 -16 -132 -57 -197 -124 -64 -64 -70 -67 -82 -50 -37
51 -43 56 -59 50 -9 -4 -16 -10 -16 -15 0 -5 24 -45 54 -88 29 -44 68 -105 86
-136 32 -58 43 -67 55 -47 10 16 -1 49 -38 111 -34 56 -34 57 -17 85 25 41
111 118 158 142 22 11 59 23 81 27 47 8 58 18 41 39 -13 16 -19 17 -66 6z"/>
<path d="M4010 3431 c0 -14 13 -24 47 -35 60 -20 63 -20 63 5 0 13 -11 25 -35
35 -48 20 -75 18 -75 -5z"/>
<path d="M3920 3390 c0 -14 15 -27 50 -45 60 -30 90 -32 90 -6 0 13 -18 26
-59 45 -70 31 -81 32 -81 6z"/>
<path d="M2483 3348 c-6 -8 -7 -41 -3 -87 18 -179 -50 -421 -218 -787 -33 -73
-70 -162 -81 -198 -28 -90 -41 -216 -32 -303 7 -74 20 -101 41 -88 9 5 10 34
5 104 -11 166 7 232 147 551 123 278 178 463 185 620 6 153 -11 230 -44 188z"/>
</g>
</svg>
